<?xml version="1.0" encoding="utf-8"?>
<!-- Generator: Adobe Illustrator 26.0.2, SVG Export Plug-In . SVG Version: 6.00 Build 0)  -->
<svg version="1.1" id="图层_1" xmlns="http://www.w3.org/2000/svg" xmlns:xlink="http://www.w3.org/1999/xlink" x="0px" y="0px"
	 viewBox="0 0 1920 1080" style="enable-background:new 0 0 1920 1080;" xml:space="preserve">
<path d="M960.49,315C836.44,315,735.5,415.92,735.5,539.98C735.5,664.06,836.44,765,960.49,765
	c124.08,0,225.01-100.94,225.01-225.02C1185.5,415.92,1084.57,315,960.49,315z M960.49,755.22c-118.67,0-215.21-96.55-215.21-215.24
	c0-118.64,96.54-215.22,215.21-215.22c118.68,0,215.23,96.58,215.23,215.22C1175.72,658.67,1079.17,755.22,960.49,755.22z"/>
<path d="M1120.41,540.81c0-89.28-72.37-161.64-161.63-161.64c-89.29,0-161.65,72.37-161.65,161.64c0,11.22,1.15,22.2,3.32,32.79
	c-9.07,1.63-24.76,4.62-34.72,7.43l47.07,85.66c0,0,15.12-5.6,36.65-6.81c28.78,26.41,67.17,42.58,109.33,42.58
	c42.08,0,80.41-16.08,109.15-42.43c1.11-0.07,16.84-0.39,38.33,6.71l46.28-85.63c0,0-12.18-4.12-35.53-7.18
	C1119.25,563.23,1120.41,552.15,1120.41,540.81z M999.4,455.52h51.09v27.85c-5.6-4.79-14.88-7.9-25.38-7.9
	c-10.7,0-20.15,3.22-25.71,8.18V455.52z M999.4,498.68h51.09v27.85c-5.6-4.81-14.88-7.92-25.38-7.92c-10.7,0-20.15,3.25-25.71,8.17
	V498.68z M1025.27,540.83c0,0-1.66,17.93-23.9,18.61h-84.81c0,0-18.08,2.32-25.37-18.61H1025.27z M932.66,414.71h51.13v27.83
	c-5.62-4.76-14.91-7.92-25.41-7.92c-10.69,0-20.13,3.25-25.72,8.2V414.71z M932.66,455.52h51.13v27.85
	c-5.62-4.79-14.91-7.9-25.41-7.9c-10.69,0-20.13,3.22-25.72,8.18V455.52z M932.66,498.68h51.13v27.85
	c-5.62-4.81-14.91-7.92-25.41-7.92c-10.69,0-20.13,3.25-25.72,8.17V498.68z M865.96,455.52h51.12v27.85
	c-5.62-4.79-14.91-7.9-25.41-7.9c-10.7,0-20.13,3.22-25.71,8.18V455.52z M865.96,498.68h51.12v27.85
	c-5.62-4.81-14.91-7.92-25.41-7.92c-10.7,0-20.13,3.25-25.71,8.17V498.68z M1144.55,585.85l-40.91,73.63
	c-75.82-20.46-131.19,8.5-131.19,8.5h-27.11c-64.57-29.64-129.58-8.95-129.58-8.95l-39.11-73.67
	c136.08-28.69,180.24,9.03,180.24,9.03h4.34C1025.48,555.23,1144.55,585.85,1144.55,585.85z"/>
<path d="M882.28,703.38c-3.28,0.28-6.24,0.23-8.83-0.11l-1.49,4.62c4.94,0.67,9.44,0.69,13.47,0.07L879.31,727l9.48,3.06l8.52-26.57
	l-7.69-2.46C888.01,702.29,885.57,703.08,882.28,703.38z"/>
<path d="M932.37,711.95c-4.78-0.63-8.85-0.3-12.19,1c-3.33,1.3-5.16,3.35-5.53,6.09c-0.36,2.7,0.85,5.04,3.56,7.11
	c2.72,2.05,6.09,3.3,10.12,3.84c3.72,0.49,6.94,0.16,9.62-1.11c-0.81,3.16-1.99,5.14-3.54,5.99c-1.55,0.79-3.33,1.12-5.35,0.86
	c-1.59-0.25-2.84-0.65-3.76-1.28c-0.91-0.61-1.41-1.49-1.5-2.55l-9.66-0.67c0.41,2.33,1.78,4.25,4.09,5.72
	c2.31,1.46,5.49,2.46,9.51,3c5.57,0.74,10.25,0.19,14-1.56c3.78-1.77,6-5.18,6.64-10.2c0.68-4.93-0.55-8.74-3.62-11.33
	C941.73,714.29,937.57,712.64,932.37,711.95z M935.49,725.81c-1.42,0.65-3.06,0.83-4.95,0.56c-1.97-0.23-3.56-0.88-4.75-1.88
	c-1.19-0.98-1.68-2.39-1.46-4.16c0.23-1.74,0.98-2.93,2.3-3.55c1.31-0.6,2.87-0.77,4.7-0.54c1.92,0.26,3.56,0.95,4.9,2.07
	c1.33,1.11,1.88,2.51,1.67,4.23C937.71,724.08,936.9,725.19,935.49,725.81z"/>
<path d="M991.31,714.02c-3.04-1.6-7.03-2.09-12.03-1.51c-5,0.58-8.75,1.95-11.33,4.16c-3.12,2.67-4.37,6.6-3.77,11.78
	c0.61,5.28,2.56,8.85,5.87,10.55c3.29,1.7,7.46,2.27,12.47,1.68c5-0.56,8.77-1.97,11.34-4.18c3.1-2.67,4.36-6.6,3.77-11.82
	C997.02,719.47,994.92,715.88,991.31,714.02z M987.02,732.92c-0.38,1.12-1.02,1.95-1.9,2.44c-0.88,0.53-1.9,0.84-3.1,0.98
	c-1.18,0.12-2.26,0.09-3.2-0.25c-0.98-0.3-1.83-1-2.56-2.16c-0.75-1.12-1.31-3.36-1.69-6.58c-0.37-3.27-0.3-5.6,0.21-7.06
	c0.4-1.12,1.01-1.92,1.92-2.46c0.88-0.53,1.9-0.86,3.06-0.98c1.2-0.12,2.27-0.04,3.24,0.26c0.97,0.3,1.83,1.04,2.57,2.16
	c0.73,1.18,1.29,3.37,1.66,6.6C987.6,729.12,987.53,731.48,987.02,732.92z"/>
<path d="M1034.51,700.54c-3.93-0.83-8.37-0.26-13.28,1.6c-4.5,1.74-7.93,3.99-10.23,6.71c-2.29,2.74-2.92,5.41-1.92,8.01
	c0.97,2.49,3.12,4.04,6.49,4.51c3.36,0.49,6.95,0.02,10.77-1.44c3.49-1.35,6.14-3.21,7.89-5.57c0.81,3.14,0.72,5.46-0.24,6.95
	c-0.97,1.44-2.4,2.55-4.29,3.28c-1.5,0.6-2.81,0.83-3.91,0.69c-1.09-0.1-1.94-0.58-2.55-1.49l-8.81,4c1.49,1.86,3.61,2.9,6.35,3.09
	c2.75,0.18,6-0.45,9.77-1.91c5.25-2.04,9.1-4.71,11.57-8.06c2.44-3.39,2.77-7.41,0.95-12.15
	C1041.3,704.08,1038.43,701.36,1034.51,700.54z M1030.62,712.83c-0.94,1.19-2.3,2.18-4.09,2.84c-1.85,0.72-3.55,0.95-5.08,0.65
	c-1.54-0.32-2.63-1.32-3.26-2.98c-0.65-1.63-0.53-3.04,0.32-4.18c0.86-1.18,2.15-2.07,3.87-2.77c1.79-0.67,3.56-0.88,5.28-0.49
	c1.71,0.33,2.87,1.33,3.5,2.91C1031.72,710.25,1031.52,711.58,1030.62,712.83z"/>
<path d="M773.81,529.92c0.84-1.97,1.4-3.23,1.72-3.78c0.46-0.77,0.97-1.33,1.54-1.63c0.57-0.26,1.25-0.35,1.99-0.32
	c1.19,0.11,2.21,0.58,3.03,1.46c0.85,0.81,1.21,2.04,1.08,3.56c-0.11,1.47-0.72,2.6-1.77,3.37c-1.07,0.79-2.7,1.26-4.84,1.33
	l0.22,4.78c3.66-0.03,6.48-0.79,8.5-2.26c2.03-1.46,3.16-3.69,3.41-6.69c0.15-2.11-0.1-3.86-0.79-5.28
	c-0.67-1.48-1.8-2.63-3.37-3.51c-1.56-0.91-3.26-1.42-5.12-1.58c-2.06-0.16-3.8,0.02-5.25,0.56c-1.43,0.51-2.61,1.3-3.52,2.37
	c-0.89,1.05-1.78,2.7-2.74,4.97c-0.94,2.32-1.77,3.71-2.51,4.29c-0.58,0.44-1.25,0.6-2.03,0.56c-0.83-0.09-1.48-0.4-1.93-0.95
	c-0.72-0.84-1.04-1.97-0.91-3.34c0.1-1.39,0.54-2.34,1.33-2.99c0.77-0.6,2-0.93,3.68-1l0.12-4.86c-2.98-0.16-5.42,0.47-7.32,1.83
	c-1.92,1.37-2.99,3.57-3.22,6.53c-0.13,1.84,0.1,3.44,0.76,4.79c0.65,1.33,1.68,2.41,3.06,3.21c1.37,0.81,2.9,1.26,4.55,1.39
	c2.57,0.23,4.79-0.33,6.7-1.65C771.51,534.13,772.73,532.4,773.81,529.92z"/>
<polygon points="790.25,512.34 776.35,509.41 778.32,500.17 792.2,503.07 793.19,498.37 761.43,491.67 760.43,496.4 772.96,499.03 
	771.01,508.3 758.5,505.67 757.49,510.38 789.26,517.07 "/>
<path d="M795.2,491.97l-6.29-4.36l3.23-9.06l7.63,0.53l1.75-4.92l-33.81-1.77l-1.74,4.85l27.49,19.6L795.2,491.97z M784.23,484.39
	l-10.26-7.04l12.48,0.88L784.23,484.39z"/>
<polygon points="804.31,468.92 785.4,459.12 808.78,460.28 811,455.99 782.16,441.07 780.09,445.05 799.41,455.03 775.58,453.81 
	773.44,457.96 802.26,472.88 "/>
<path d="M799.2,443.73c2.54,1.79,5.19,3.09,7.89,3.88c2.7,0.76,5.17,0.81,7.43,0.09c2.23-0.72,4.07-2.06,5.53-4.09
	c1.14-1.65,1.84-3.48,2.13-5.66c0.28-2.16,0.18-4.04-0.33-5.65l-10.57-7.48l-6.02,8.48l4.48,3.18l3.21-4.55l3.37,2.37
	c0.21,1.05,0.23,2.16,0.09,3.34c-0.15,1.11-0.53,2.11-1.11,2.95c-1.18,1.67-2.92,2.46-5.25,2.39c-2.29-0.09-5.04-1.21-8.17-3.48
	c-2.92-2.05-4.76-4.14-5.53-6.22c-0.77-2.05-0.52-3.95,0.7-5.71c0.8-1.11,1.85-1.81,3.15-2.06c1.3-0.21,2.7,0,4.2,0.65l1.77-4.6
	c-2.72-1.33-5.27-1.83-7.61-1.42c-2.37,0.39-4.42,1.77-6.13,4.18c-1.32,1.9-1.97,3.78-1.99,5.64c0,2.46,0.75,4.9,2.3,7.27
	C794.28,439.61,796.43,441.77,799.2,443.73z"/>
<polygon points="830.99,428.83 820.68,419.13 827.15,412.21 837.49,421.94 840.77,418.43 817.14,396.2 813.83,399.71 823.16,408.47 
	816.67,415.36 807.35,406.61 804.03,410.11 827.69,432.37 "/>
<path d="M845.81,413.99l-3.12-6.97l7.46-6.08l6.25,4.41l4.04-3.27l-27.99-19.09l-3.99,3.25l13.32,31L845.81,413.99z M835.26,390.49
	l10.2,7.22l-5.08,4.14L835.26,390.49z"/>
<polygon points="866.04,398.74 847.97,371.81 843.96,374.49 862.05,401.45 "/>
<polygon points="881.17,389.84 870.46,366.63 885.48,387.86 889.71,385.91 883.26,360.73 894.01,383.91 898.07,382.01 
	884.45,352.56 877.85,355.6 883.28,377.48 870.07,359.22 863.47,362.27 877.1,391.72 "/>
<path d="M904.16,380.1l-0.21-7.64l9.22-2.74l4.09,6.5l5-1.47l-18.52-28.39l-4.94,1.47l0.38,33.73L904.16,380.1z M910.09,364.92
	l-6.3,1.86l-0.34-12.45L910.09,364.92z"/>
<path d="M928.49,373.81l-2.07-13.38l0.97-0.14c1.09-0.18,1.91-0.18,2.46-0.04c0.54,0.19,1.08,0.54,1.63,1.14
	c0.55,0.58,1.63,2,3.24,4.32l4.51,6.44l5.7-0.88l-3.84-5.83c-1.52-2.3-2.7-3.9-3.52-4.78c-0.83-0.86-1.82-1.63-2.96-2.3
	c2-0.74,3.4-1.95,4.2-3.69c0.79-1.76,1-3.79,0.62-6.2c-0.29-1.91-0.9-3.55-1.8-4.88c-0.93-1.4-1.99-2.28-3.23-2.67
	c-1.23-0.4-3.11-0.4-5.63-0.02l-10.02,1.56l4.97,32.07L928.49,373.81z M928.08,346.57c1.91-0.28,3.09-0.44,3.47-0.44
	c0.81,0.07,1.47,0.4,1.99,1c0.52,0.61,0.88,1.46,1.03,2.55c0.16,0.93,0.13,1.77-0.1,2.46c-0.23,0.72-0.59,1.21-1.12,1.6
	c-0.53,0.32-1.92,0.67-4.2,1.04l-3.51,0.53l-1.26-8.13L928.08,346.57z"/>
<polygon points="951.59,371.23 949.59,338.8 944.77,339.09 946.76,371.51 "/>
<polygon points="961.04,371.02 965.86,371.14 966.42,344.13 973.49,344.27 973.61,338.81 954.63,338.43 954.54,343.92 961.6,344.05 
	"/>
<polygon points="984,339.99 979.21,339.46 975.78,371.74 980.6,372.26 "/>
<polygon points="994.82,348.47 994.04,374.44 998.59,375.41 1008.58,351.42 1003.22,376.39 1007.61,377.34 1014.45,345.62 
	1007.34,344.08 998.52,364.84 998.96,342.29 991.85,340.74 985.01,372.48 989.4,373.44 "/>
<polygon points="1028.2,384.84 1030.09,379.69 1017.53,375.09 1020.56,366.84 1031.87,370.98 1033.75,365.85 1022.46,361.68 
	1024.95,354.9 1037.09,359.38 1038.98,354.21 1022.31,348.08 1011.1,378.55 "/>
<path d="M1047.17,395.5c1.63,0.93,3.13,1.46,4.47,1.47c1.36,0.04,2.6-0.25,3.77-0.86c1.18-0.58,2.28-1.49,3.33-2.76
	c1.04-1.26,2.56-3.58,4.54-6.92l8.69-14.72l-4.16-2.44l-9.13,15.47c-1.32,2.21-2.33,3.76-3,4.64c-0.69,0.9-1.53,1.48-2.5,1.77
	c-1,0.31-2.07,0.09-3.24-0.58c-1.18-0.7-1.88-1.58-2.16-2.67c-0.24-1.11-0.12-2.25,0.38-3.53c0.32-0.76,1.18-2.34,2.61-4.76
	l8.95-15.14l-4.17-2.46l-8.81,14.94c-1.85,3.13-3.12,5.57-3.78,7.31c-0.47,1.21-0.68,2.48-0.68,3.81c0,1.32,0.33,2.62,1,3.84
	C1043.91,393.14,1045.22,394.34,1047.17,395.5z"/>
<polygon points="1062.3,404.7 1075.47,388 1069.93,410.7 1073.71,413.73 1093.81,388.21 1090.28,385.42 1076.84,402.52 
	1082.55,379.34 1078.87,376.43 1058.78,401.96 "/>
<polygon points="1080.22,420.05 1102.55,396.51 1099.08,393.18 1076.72,416.73 "/>
<polygon points="1109.32,403.29 1105.84,399.36 1087.12,427.21 1090.6,431.11 1120.55,415.99 1117.16,412.16 1095.27,423.7 "/>
<polygon points="1107.39,453.87 1111.91,450.76 1104.34,439.71 1111.61,434.73 1118.41,444.65 1122.94,441.59 1116.14,431.63 
	1122.08,427.56 1129.4,438.22 1133.92,435.13 1123.87,420.47 1097.09,438.83 "/>
<path d="M1111.18,460.79l12.06-6.16l0.44,0.88c0.49,0.98,0.76,1.74,0.78,2.3c0,0.6-0.17,1.21-0.54,1.93
	c-0.38,0.69-1.41,2.18-3.11,4.43l-4.71,6.3l2.63,5.15l4.32-5.46c1.73-2.19,2.85-3.81,3.44-4.85c0.58-1.05,0.98-2.25,1.26-3.53
	c1.31,1.67,2.91,2.63,4.81,2.81c1.89,0.23,3.92-0.21,6.08-1.33c1.73-0.86,3.07-1.95,4.09-3.25c1.02-1.28,1.52-2.62,1.52-3.88
	c0-1.3-0.59-3.09-1.75-5.36l-4.62-9.03l-28.9,14.75L1111.18,460.79z M1135.19,448.51l1.71,3.34c0.9,1.74,1.4,2.83,1.5,3.18
	c0.2,0.79,0.1,1.51-0.31,2.2c-0.4,0.69-1.09,1.3-2.07,1.77c-0.87,0.44-1.67,0.67-2.41,0.7c-0.69,0-1.33-0.18-1.83-0.6
	c-0.52-0.39-1.26-1.62-2.33-3.65l-1.61-3.18L1135.19,448.51z"/>
<path d="M1136.26,473.1c-0.84,1.42-1.26,3.49-1.22,6.23c0.04,2.09,0.03,3.48-0.03,4.07c-0.11,0.95-0.35,1.61-0.75,2.14
	c-0.4,0.47-0.95,0.86-1.69,1.11c-1.12,0.4-2.25,0.4-3.35-0.05c-1.1-0.46-1.91-1.4-2.44-2.83c-0.5-1.41-0.41-2.69,0.24-3.81
	c0.65-1.16,1.94-2.21,3.87-3.23l-2.17-4.23c-3.31,1.49-5.59,3.35-6.85,5.5c-1.23,2.19-1.34,4.69-0.33,7.55
	c0.69,1.95,1.67,3.49,2.87,4.5c1.2,1.07,2.7,1.67,4.5,1.84c1.79,0.16,3.56-0.05,5.32-0.69c1.93-0.67,3.46-1.58,4.56-2.63
	c1.11-1.09,1.85-2.27,2.23-3.6c0.37-1.32,0.54-3.23,0.47-5.69c-0.1-2.48,0.1-4.11,0.56-4.9c0.33-0.65,0.88-1.11,1.6-1.33
	c0.81-0.28,1.52-0.28,2.17,0.02c1,0.49,1.74,1.4,2.19,2.72c0.48,1.26,0.47,2.34,0,3.21c-0.45,0.88-1.42,1.7-2.92,2.48l1.85,4.44
	c2.8-1.07,4.76-2.62,5.95-4.65c1.19-2.04,1.26-4.46,0.26-7.29c-0.62-1.74-1.5-3.07-2.66-4.05c-1.16-0.95-2.52-1.53-4.11-1.67
	c-1.59-0.18-3.16,0-4.71,0.58C1139.25,469.69,1137.45,471.09,1136.26,473.1z"/>
<polygon points="1127.2,502.21 1158.62,494.06 1157.41,489.39 1125.99,497.52 "/>
<polygon points="1155.75,506.74 1129.17,511.34 1130,516.1 1156.59,511.53 1157.78,518.47 1163.19,517.56 1159.96,498.87 
	1154.57,499.79 "/>
<polygon points="1131.74,531.52 1131.99,536.37 1145.59,535.63 1164.88,543.41 1164.59,537.84 1151.42,533.03 1164,526.74 
	1163.68,521.02 1145.38,530.82 "/>
<path d="M854.57,627.93c-0.67-0.07-1.34,0.35-2.13,0.47c-2.55,0.4-5.09,0.63-7.96,1.25c-1.26,0.24-2.67,0.81-4.12,0.58
	c-0.91-1.56-2.02-5.39-1.4-7.92c0.33-1.34,1.04-2.65,1.28-4.2c0.51-2.97-0.47-6.06,0.51-8.66c0.33-0.84,1.14-1.4,1.61-2.09
	c0.32-0.51,1.72-4.97,1.49-5.6c-0.23-0.46-0.47-0.84-0.71-1.26c-0.68-0.42-1.36-0.58-2.57-0.51c-4.05,2.07-4.79,6.76-5.48,12.06
	c0.12,1.46,0.24,2.92,0.37,4.39c-0.17,2.34-0.32,4.69-0.46,7.06c0.43,1.95,0.83,4.37,0.94,7.08c-0.72,0.54-1.54,0.47-2.64,0.51
	c-1.04,0.11-2.11,0.18-3.15,0.25c-2.86-0.44-3.91-1.97-6.03,1.02c-0.58,0.83-1.83,1.63-1.07,3.49c0.54,1.3,4.08,2.51,5.89,2.65
	c8.24,0.74,15.48-1.56,22.16-3.41c1.1-0.26,2.2-0.51,3.3-0.74c0.79-0.4,1.73-1.33,2.53-1.77c0.68-0.37,1.69-0.07,2.04-0.81
	C859.98,629.19,856.34,628.15,854.57,627.93z"/>
<path d="M963,621.3c-0.58-1.65-1.2-3.34-1.79-4.99c-0.45-1.95,0.14-4.09-0.74-5.41c-1.09-0.21-1.86,0-2.83,0.26
	c-0.76-0.1-1.54-0.17-2.33-0.26c-1.9,1.6-6.33,1.72-9.9,1.76c-0.08-0.14-0.11-0.28-0.19-0.4c1.14-2.42,5.88-6.37,8.35-7.62
	c0.97-0.49,2.29-0.09,3.3-0.42c0.91-0.33,2.51-1.88,1.92-3.14c-0.45-0.83-1.97-1.12-3.18-0.76c-0.55,0.35-1.1,0.69-1.64,0.98
	c-2.37,0.11-4.75,0.19-7.11,0.3c-1.05,0.02-2.53,0.61-3.34,0.18c-0.51-0.4-0.6-1.21-1.12-1.63c-0.61-0.07-1.23-0.1-1.83-0.1
	c-1.08,0.53-1.78,0.63-2.46,1.56c-0.15,1.33-0.29,2.7-0.46,4.09c3.13,1.86,6.52,0.28,10.21-0.17c0.64-0.02,1.27-0.07,1.91-0.11
	c0.05,0,0.11,0,0.15,0c-0.17,1.32-4.91,4.53-6.07,5.46c-2.7,2.2-5.27,5.15-7.24,8.03c-0.73,1.35-1.48,2.7-2.2,4.04
	c-0.67,0.25-1.33,0.46-1.98,0.74c-2.34,0.98-5.87,2.21-7.18,4.25c-0.15,0.02-0.27,0.02-0.41,0.02c-1.37-2.48-1.06-9.75,0.25-11.62
	c0.59-0.84,2.24-0.6,2.62-1.63c0.5-1.4-0.36-3.3-0.53-4.34c0.11-0.14,0.26-0.3,0.39-0.4c3.7,0.46,4.13-0.37,4.71-3.64
	c0.1-0.56,0.37-1.19,0.04-1.84c-0.34-0.6-4-2.23-4.97-1.92c-0.68,0.37-2.48,3.53-2.17,4.9c0.18,0.81,0.85,1.39,0.47,2.37
	c-0.55,1.48-2.31,1.99-2.63,3.65c-0.17,0.82,0.36,1.18,0.55,1.65c0.33,0.9,0.17,2.07-0.02,2.97c-1.03,4.9-2.83,9.68-1.63,15.52
	c0.28,1.4-0.52,2.95,0.03,4.04c0.16,0.33,0.33,0.46,0.68,0.56c0.54,0.23,1.18-0.07,1.57-0.19c3.41-1.12,1.12-4.25,2.71-6.57
	c0.37-0.63,3.36-2.34,4.58-2.06c0.28,2.02-0.93,5.18,0.61,6.88c0.88,0.98,2.6,0.88,4.03,1.25c3.33,0.83,7.74,0.88,11.13-0.23
	c1.49-0.56,3-1.09,4.53-1.61c1.62-0.12,3.25-0.28,4.88-0.4c1.3-0.81,2.08-3.53,0.61-4.58c-0.02-0.16-0.02-0.33-0.02-0.47
	c0.79-0.54,1.59-1.07,2.36-1.6c0.61-0.58,0.78-1.44,1.6-1.88c2.14-0.69,3.66,2.18,5.8-0.9C969.02,623.03,964.97,621.64,963,621.3z
	 M954.34,629.36c-1.36-0.17-1.71-1.39-3.04-1.6c-0.1,0.09-0.2,0.16-0.31,0.19c-0.28,1.6,0.17,2.04,0.5,3.23
	c-0.03,0.07-0.06,0.12-0.07,0.14c-2.32,1.25-13.47,0.6-15.47-0.3c-0.16-0.7,0.07-1.68,0.52-2.07c0.46-0.39,5.06-1.86,5.69-1.67
	c0.09,0.04,0.17,0.04,0.24,0.07c0.26,1.6-0.09,2.23,0.68,3.55c6.38,1.51,3.94-2.88,6.36-4.48c1.77,0.05,5.07-0.49,6.74,0.16
	C957.17,627.27,954.83,629.03,954.34,629.36z M958.01,620.87c-1.04,0.63-7.35,0.44-8.79,0c-0.17-0.56-0.33-1.14-0.47-1.72
	c-0.73-0.18-1.78-0.46-2.57-0.18c-0.92,0.46-1.16,1.74-1.68,2.53c-1.39,0.33-3.27,0.58-4.64,0.3c-0.07-0.09-0.14-0.21-0.17-0.31
	c-0.4-1.07,1.2-3.27,1.7-4.04c0.7,0,1.39,0.02,2.08,0.02c0.96-0.26,2.33-0.7,3.64-0.95c2.27-0.35,6.32,0.35,9.1-0.81
	c0.22,0.02,0.44,0.02,0.67,0.03C957.93,616.35,958.23,619.23,958.01,620.87z"/>
<path d="M911,620.69c-2.45-1.58-0.35-6.22-3.53-7.71c-2.75-1.28-10.54,1.76-13.83,1.07c-0.36,0.1-0.51,0.03-0.6-0.4
	c0.93-1.54,4.46-5.46,6.13-6.08c1.08-0.4,2.37,0,3.48-0.42c0.69-0.28,0.82-1.25,1.36-1.63c0.95-0.65,2.11-0.61,2.62-1.65
	c0.05-0.28,0.09-0.53,0.14-0.83c-0.43-0.67-0.82-1.04-1.46-1.44c-2.39-0.35-9.33,2.69-11.34,0.98c0.19-0.83,0.4-1.69,0.59-2.53
	c0.64-0.9,2.27-1.23,1.75-3.04c-0.23-0.28-0.46-0.58-0.69-0.88c-0.66-0.05-1.32-0.07-1.98-0.12c-0.68,0.51-1.48,0.77-1.97,1.49
	c-0.27,0.38-0.54,0.81-0.8,1.23c-3.22,2.62-6.84,4.48-9.68,7.45c-4.5,4.64-7.61,10.73-10.23,17.21c-0.55,1.46-1.11,2.91-1.69,4.37
	c-0.08,1.95-0.16,3.93-0.25,5.9c-0.14,0.58-0.65,1.16-0.44,2.07c0.16,0.74,0.44,2.04,0.82,2.55c1.75,0.37,3.89-0.17,4.28-1.6
	c0.51-1.86-1.41-3.18-1.64-4.92c-0.26-1.93,0.95-7.67,1.56-9.46c1.66-4.64,5.65-11.89,9.06-14.79c1.94-1.47,3.89-2.97,5.84-4.46
	c0.13-0.02,0.23-0.02,0.33-0.02c0.47,0.97-0.04,2.7,0.6,3.65c1.12,1.65,5.09,0.91,7.34,1.05c0.04,0.11,0.08,0.23,0.1,0.39
	c-1.26,1.25-2.55,2.51-3.79,3.76c-0.57,0.74-1.13,1.4-1.68,2.12c-0.54,0.23-1.06,0.4-1.58,0.63c-0.83,0.86-1.66,1.7-2.5,2.56
	c-0.42,0.63-0.44,1.33-0.77,2.09c-0.17,0.37-2.42,4.2-2.62,4.3c-1.32,0.84-3.49,0.67-4.97,0.65c-0.37,0.4-0.75,0.77-1.11,1.18
	c-2.03,1.37-4.32,1.21-4.2,4.6c2.8,3.02,5.07,0.56,8.57,0.28c0.21,0.44,0.03,0.83,0.11,1.39c0.33,2,0.32,3.65,1.29,4.88
	c2.29,2.86,7.74,1.77,11.49,1c0.82,0,1.61,0.02,2.41,0.02c2.19-0.56,4.08-1.54,6.85-1.6c0.61-0.93,2.4-3.62,0.88-4.67
	c0.09-0.44,4.53-4.92,4.92-5.04c1.21-0.35,1.94,0.4,3.06-0.47c1.04-0.9,1.35-3.16,0.22-4.29C912.81,620.92,911.81,621.16,911,620.69
	z M900.36,631.56c-2.51,0.95-12.07,2.34-13.38-0.14c-0.41-0.84-0.18-2.02,0.18-2.6c0.97-0.21,4.35-1.05,5.45-0.74
	c1.14,0.37,2.14,1.47,4.02,0.98c1.35-0.31,1.53-1.44,2.51-1.98c0.95-0.21,1.86-0.44,2.82-0.65c0.78-0.02,1.69-0.09,2.25,0.09
	c0.01,0.09,0.06,0.18,0.08,0.28C903.03,628.52,901.26,629.43,900.36,631.56z M905.76,620.6c-0.49,0.83-1.87,0.11-3.04,0.32
	c-1.49,0.16-2.99,0.33-4.48,0.46c-0.92-0.25-1.72-1.56-2.95-1.4c-1.56,0.23-1.32,1.77-2.44,2.21c-0.89,0.37-2.8,0.61-3.79,0.37
	c-0.14-0.91,0.32-2.81,1.07-3.2c0.83,0.07,1.66,0.16,2.49,0.19c2.7-0.26,9.26-0.61,11.26-1.63c0.33-0.02,0.66-0.02,1-0.05
	C905.26,618.35,906.14,619.65,905.76,620.6z"/>
<path d="M869.64,614.7c0.12,0.47,0.25,0.93,0.38,1.42c0.33,0.02,2.81-0.72,3.39-0.95c0.99-1.97-0.33-4-0.5-6.11
	c0.02-0.07,0.04-0.12,0.07-0.16c1.35-0.79,3.24,1.72,5.3-0.17c2.43-2.21,1.99-7.55-2.2-7.5c-1.33,1.02-2.87,2.21-3.46,3.93
	c-0.42,1.21-0.24,2.79-0.9,3.76c-0.83,1.19-2.84,2.16-3.2,3.67C868.17,613.95,869.23,614.16,869.64,614.7z"/>
<path d="M1065.92,622.24c2.83,1.32,2.14-6.01,2.7-7.29c0.65-1.44,5.35-2.02,7.32-2.55c6.4-1.63,13.05-4.06,20.56-4.14
	c0.07,0.09,0.17,0.18,0.24,0.28c-0.16,1.16-0.46,2.06,0.97,2.02c0.56,0.83,0.86,1.97,1.82,2.37c3.09,1.25,4.96-3.13,4.07-6.11
	c-0.78-2.56-4.65-2.7-7.64-2.93c-0.04-0.16-0.06-0.33-0.1-0.51c1.84-2.49,3.38-6.43,2.02-10.75c-0.49-0.95-2.56-1.46-3.93-0.88
	c-2.43,1.02-4.55,3.83-7.51,4.27c-0.05-0.02-0.05-0.03-0.09-0.09c-0.18-1.35,1.01-2.84,0.54-4.41c-0.15-0.35-0.26-0.51-0.59-0.65
	c-0.37,0-0.74-0.02-1.07-0.07c-2.18,1.18-2.98,2.7-4.29,4.6c-0.1,0.03-0.22,0.03-0.33,0.03c-0.29-0.86-0.49-1.21-0.96-1.81
	c-3.26-0.67-4.45,7.08-6.57,8.66c-0.03-0.04-0.07-0.05-0.09-0.07c0.02-0.81,0.07-1.63,0.11-2.42c0.37-0.19,0.63-0.11,1.06-0.26
	c1.07-0.79-0.02-4.32-0.95-4.72c-1.17,0.07-2.2,0.69-2.46,1.56c0.05,0.53,0.08,1.05,0.12,1.58c-0.39,1.95-0.89,3.81-0.48,6.3
	c0.15,0.95,0.51,2.44,0.19,3.42c-0.04,0.07-0.05,0.16-0.08,0.25c-0.73,0.05-1.11-0.35-1.76-0.54c-1.09-0.3-2.67,0.7-3.12,1.33
	c-1.61,2.27-1.08,8.15-0.38,10.64C1065.46,620.09,1065.34,621.95,1065.92,622.24z M1088.33,600.78c0.21-0.86-0.11-2.18,0.33-2.83
	c0.9-1.37,3.74-1.41,5.27-2.23c1.16,0.07,1.06,1.97,0.9,2.88c-0.32,1.58-1.72,5.07-3.35,4.83c-0.03-0.07-0.07-0.18-0.09-0.23
	c0.63-0.83,3.14-2.07,2.56-3.58c-0.43-0.9-1.62-0.75-2.66-0.51c-3.08,0.74-2.28,3-3.2,5.32c-0.43,0.09-0.86,0.14-1.3,0.21
	c-0.04-0.12-0.09-0.24-0.11-0.4C1087.34,603.27,1088,602.02,1088.33,600.78z M1081.2,598.23c0.44,0.26,1.27,1.32,1.12,2.04
	c-0.36,0.65-0.73,1.32-1.1,1.97c-0.39,1.19-0.76,2.39-1.15,3.58c-0.4,0.16-0.77,0.28-1.4,0.28c-0.03-0.02-0.08-0.04-0.09-0.05
	C1078.74,602.11,1078.98,600.57,1081.2,598.23z M1075.24,602.13c0.17,0.12,0.15,0.09,0.27,0.25c0.49,1.19-0.11,4.3-0.8,4.83
	c-0.27,0.05-0.54,0.07-0.82,0.14c-0.06-0.14-0.12-0.24-0.17-0.37C1073.12,605.61,1074.58,602.88,1075.24,602.13z"/>
<path d="M851.34,613.4c0.6-0.47,1.25-1.02,1.54-1.79c1-2.67-0.44-4.85-2.49-5.51c-0.84,0.05-1.72,0.09-2.57,0.09
	c-0.67-0.18-0.78-0.67-1.84-0.6c-1.34,1.11-2.37,4.14-2.3,6.46C846.33,613.6,848.32,615.81,851.34,613.4z"/>
<path d="M1087.81,620.62c-0.05-0.02-0.12-0.09-0.19-0.14c-0.02-0.09-0.06-0.18-0.08-0.23c0.87-1.18,1.58-0.74,2.69-1.51
	c1.49-1,1.56-3.39,0.54-4.65c-0.65-0.07-1.27-0.14-1.92-0.23c-1.14,0.16-2.25,0.3-3.39,0.44c-3.93,0.97-13.83,1.7-12.28,6.6
	c2.13,1.05,4.86-0.63,6.7-1.19c0.84-0.26,2.16-0.72,2.58-0.26c-0.21,0.65-0.42,1.3-0.61,1.93c-2.14,1.32-4.48,1.76-6.99,2.86
	c-1.25,0.56-2.06,1.76-3.09,2.58c-0.86,0.7-2.6,2.77-1.51,4.44c0.55,0.88,2.68,1.12,4.16,0.74c1.55-0.46,2.65-2.07,3.9-2.95
	c0.36-0.25,4.65-1.56,5.11-1.65c1.61,2.6-0.39,6.44-2.2,7.73c-0.9,0.63-1.78,0.93-2.35,1.88c-0.31,0.46,0.19,0.6,0.04,1.23
	c-0.52,2.14-1.31,5.44,2.27,4.04c1.67-0.67,1.56-2.48,2.56-3.77c0.38-0.26,0.75-0.56,1.14-0.84c2.8-3,3.94-6.62,3.64-12.22
	c1.86-1.3,6.31-0.12,8.76-0.98c1.38-0.69,0.83-3.85-0.35-4.3C1095.49,619.57,1089.86,620.53,1087.81,620.62z"/>
<path d="M1016.12,602.48c-0.21-4.62-11.8-0.88-15.57-1.56c-1.04-1.88,0.77-4.9-2.38-5c-2.99,1.74-1.99,1.91-1.68,5.11
	c-1.52,1.61-11.77,1.4-14.74,2.25c-1.46,0.4-3.79,0.86-3.2,3.06c0.4,1.6,2.48,2.07,4.52,1.58c4.07-1.04,8.12-2.48,12.63-2.79
	c0.03,0.11,0.04,0.23,0.09,0.33c-0.85,1.12-8.65,4.32-10.49,4.97c-1.91,0.61-2.64,1.02-3.07,3.07c-0.01,0.58-0.04,1.19-0.04,1.79
	c0.71,1.65,2.82,1.44,4.33,0.74c1.69-0.79,1.31-1.84,2.26-2.65c1.06-0.95,4.79-2.62,6.57-2.77c0.06,0.11,0.1,0.18,0.17,0.26
	c0.68,1.77-2.2,1.48-3.35,1.83c-2.29,0.74-2.76,1.69-2.3,3.9c-0.04,0.04-0.07,0.04-0.09,0.09c-0.54,0.79-5.34,2.6-6.57,2.9
	c-2.58,0.74-6.97,0.25-5.86,3.83c0.46,0.91,3.39,1.86,5.02,1.35c0.75-0.33,1.52-0.7,2.29-1.05c2.98-1.02,7.24-1.46,10.82-1.63
	c0.07,0.07,0.12,0.1,0.18,0.18c0,0.07,0,0.14,0,0.24v0.07c-1.63,1.05-4.58,0.61-6.77,1.11c-2.12,0.47-4.23,0.93-6.38,1.44
	c-0.66,0.19-1.36,0.42-2.04,0.61c-1.91,0.11-4.91,0.47-6.79,1.04c-0.23,0.42-0.49,0.95-0.27,1.6c0.75,1.61,4.39,0.84,6.31,0.4
	c3.02-0.72,6.69-0.77,10.26-1.46c1.1-0.12,2.2-0.25,3.31-0.35c1.12,0.12,2.33-0.51,3.41-0.09c0.24,0.12,0.19,0.12,0.33,0.32
	c-1.97,3.37-8.3,1.04-11.82,1.91c-1.47,0.35-4.38,1.62-3.22,3.65c1.2,2.32,11.6,0.02,14.28-0.07c0.12,0.18,0.23,0.33,0.36,0.51
	c-0.75,2-1.74,5.62-3.81,6.3c-1.18,0.07-2.32,0.14-3.49,0.19c-0.01,0.23-0.04,0.44-0.06,0.7c0.97,0.93,0.83,2.04,1.49,2.81
	c0.2,0.3,0.34,0.33,0.76,0.42c3.35-1.88,6.12-3.95,8.02-7.2c0.59-1.05,1.24-3.6,1.88-4.39c0.83-1.04,3.6-0.9,4.77-1.6
	c1.69-1.05,2.48-3.44,3.85-5c1.77-2.07,6.1-0.84,6.01-4.76c-1.25-1.25-2.77-0.79-3.7-1.55c-0.66-0.56-0.83-1.61-1.56-2.14
	c-1.68-1.16-5.52-1.4-7.8-0.65c-0.19-0.18-0.15-0.09-0.27-0.33c0.32-0.28,0.65-0.6,0.97-0.86c0.52-0.77,0.32-2.44,1.08-2.93
	c1.52-1.07,6.68-1.76,5.68-4.67c-0.54-1.51-3.62-2.46-5.63-2.32c-1.05,0-2.1,0.07-3.15,0.09c-0.09-0.09-0.17-0.11-0.25-0.18v-0.09
	C1004.23,603.3,1015.04,604.71,1016.12,602.48z M989.59,619.07c-0.03-0.07-0.04-0.11-0.08-0.14c1.06-0.49,2.12-0.97,3.2-1.44
	c0.69-0.14,1.39-0.26,2.06-0.4c0.2,0,0.38,0,0.58,0c0.1,0.23,0.18,0.4,0.27,0.67C994.36,618.65,991.7,619.07,989.59,619.07z
	 M1002.01,626.87c-0.26-0.12-0.25-0.18-0.4-0.42c0.4-1.42,1.23-1,2.51-1.56c0.52,0,1.05,0.04,1.58,0.07
	c0.16,0.19,0.2,0.18,0.26,0.56C1005.68,626.03,1002.72,627.05,1002.01,626.87z M1003.66,620.09c0.9-0.02,2.01-0.07,2.66,0.09
	c0.05,0.12,0.12,0.26,0.18,0.42c-0.54,0.7-2.46,0.88-3.63,0.93c-0.14-0.12-0.26-0.23-0.42-0.33
	C1002.5,620.27,1003.02,620.43,1003.66,620.09z M1001.53,609.36c0.33-0.74,1.07-0.7,1.8-1.02c0.64-0.07,1.28-0.09,1.91-0.09
	c0.09,0.09,0.18,0.18,0.25,0.23c-0.17,1.05-2.49,2.86-3.83,2.42c-0.08,0-0.18-0.04-0.25-0.05
	C1001.28,610.33,1001.32,609.77,1001.53,609.36z"/>
<path d="M1044.9,624.52c-0.1-0.42-0.2-0.84-0.28-1.26c-0.42-1.02-1.59-1.32-3.11-1.23c-0.54,0.21-1.1,0.44-1.64,0.63
	c-3.05,2.23,0.54,5.37,1.77,7.08c1.57,2.2,3.62,4.32,5.97,5.66c1.09,0.37,2.18,0.76,3.26,1.16c1.59,0.84,3.57,2.11,5.64,2.32
	c0.53-0.39,0.66-1.07,1.12-1.42c1.15-0.35,2.32-0.7,3.47-1.04c1.09-1.98-1.44-3.77-2.46-4.5c-1.12-0.79-2.35-1.09-3.7-1.68
	c-2.85-1.37-6.03-2.79-8.51-4.6C1046.06,625.34,1045.18,624.85,1044.9,624.52z"/>
<path d="M1042.58,607.27c-1.57-2.55,4.93-13.15-1.76-12.89c-1.16,0.63-2.93,1.77-2.49,3.72c0.22,0.81,0.45,1.6,0.65,2.39
	c-0.27,2.76-1.02,5.55-1.95,7.76c-3.32,1.28-13.25,2.81-11.82,7.66c1.43,2.83,3.04,3.6,6.9,3.37c0.07,0.07,0.12,0.16,0.18,0.26
	c-1.68,4.43-4.92,9.11-7.69,12.66c-2.05,2.63-4.88,4.95-7.02,7.69c0.04,0.17,0.07,0.37,0.11,0.54c0.23,0.07,0.46,0.12,0.67,0.16
	c4.69-3.14,10.26-7.87,13.52-12.33c1.26-1.72,2.62-3.55,3.76-5.36c1.11-1.72,1.63-3.84,3.19-5.14c2.38-2,10.5-2.37,11.65-5.23
	c0.24-0.65,0.3-1.92,0.07-2.74C1049.67,606.62,1046.18,607.1,1042.58,607.27z"/>
</svg>
